%TF.GenerationSoftware,KiCad,Pcbnew,(6.0.7)*%
%TF.CreationDate,2022-09-30T17:27:37+13:00*%
%TF.ProjectId,encoder,656e636f-6465-4722-9e6b-696361645f70,rev?*%
%TF.SameCoordinates,Original*%
%TF.FileFunction,Copper,L2,Bot*%
%TF.FilePolarity,Positive*%
%FSLAX46Y46*%
G04 Gerber Fmt 4.6, Leading zero omitted, Abs format (unit mm)*
G04 Created by KiCad (PCBNEW (6.0.7)) date 2022-09-30 17:27:37*
%MOMM*%
%LPD*%
G01*
G04 APERTURE LIST*
%TA.AperFunction,WasherPad*%
%ADD10C,0.600000*%
%TD*%
%TA.AperFunction,ViaPad*%
%ADD11C,0.800000*%
%TD*%
G04 APERTURE END LIST*
D10*
%TO.P,REF\u002A\u002A,*%
%TO.N,*%
X-1532737Y11659752D03*
X-768531Y11746147D03*
X768531Y11746147D03*
X0Y11775000D03*
X1532737Y11659752D03*
%TD*%
%TO.P,REF\u002A\u002A,*%
%TO.N,*%
X-11684752Y-1532737D03*
X-11771147Y-768531D03*
X-11771147Y768531D03*
X-11800000Y0D03*
X-11684752Y1532737D03*
%TD*%
%TO.P,REF\u002A\u002A,*%
%TO.N,*%
X1532737Y-11663605D03*
X768531Y-11750000D03*
X-768531Y-11750000D03*
X0Y-11778853D03*
X-1532737Y-11663605D03*
%TD*%
%TO.P,REF\u002A\u002A,*%
%TO.N,*%
X11675000Y1532736D03*
X11761395Y768530D03*
X11761395Y-768532D03*
X11790248Y-1D03*
X11675000Y-1532738D03*
%TD*%
D11*
%TO.N,GND*%
X2800000Y-4600000D03*
X-1600000Y5400000D03*
%TO.N,+3.3V*%
X-1600000Y-5200000D03*
X1600000Y5400000D03*
%TD*%
%TA.AperFunction,Conductor*%
%TO.N,+3.3V*%
G36*
X-305629Y11026014D02*
G01*
X-196832Y10985552D01*
X-125739Y10976066D01*
X-24020Y10962493D01*
X-24016Y10962493D01*
X-17039Y10961562D01*
X-10028Y10962200D01*
X-10024Y10962200D01*
X132459Y10975168D01*
X163600Y10978002D01*
X170302Y10980180D01*
X170304Y10980180D01*
X247307Y11005200D01*
X310668Y11025787D01*
X381634Y11027815D01*
X400653Y11020604D01*
X401690Y11019925D01*
X408298Y11017467D01*
X408303Y11017465D01*
X565089Y10959157D01*
X565091Y10959157D01*
X571699Y10956699D01*
X655526Y10945514D01*
X744511Y10933640D01*
X744515Y10933640D01*
X751492Y10932709D01*
X758503Y10933347D01*
X758507Y10933347D01*
X900990Y10946315D01*
X932131Y10949149D01*
X938833Y10951327D01*
X938835Y10951327D01*
X1014973Y10976066D01*
X1085941Y10978094D01*
X1122898Y10961667D01*
X1165896Y10933530D01*
X1172500Y10931074D01*
X1172502Y10931073D01*
X1329295Y10872762D01*
X1329297Y10872762D01*
X1335905Y10870304D01*
X1404907Y10861097D01*
X1508717Y10847245D01*
X1508721Y10847245D01*
X1515698Y10846314D01*
X1522709Y10846952D01*
X1522713Y10846952D01*
X1685327Y10861752D01*
X1696337Y10862754D01*
X1703042Y10864933D01*
X1709938Y10866348D01*
X1710509Y10863567D01*
X1768687Y10865225D01*
X1781434Y10860644D01*
X1784515Y10858647D01*
X1841669Y10841554D01*
X1842543Y10841293D01*
X1847184Y10839807D01*
X1904484Y10820227D01*
X1912908Y10819850D01*
X1915995Y10819327D01*
X1924066Y10816913D01*
X1933033Y10816858D01*
X1933034Y10816858D01*
X1933390Y10816856D01*
X1935252Y10816845D01*
X1959982Y10814239D01*
X2423209Y10718480D01*
X2533297Y10695723D01*
X2540418Y10694034D01*
X3031379Y10562403D01*
X3150121Y10530567D01*
X3157115Y10528472D01*
X3627377Y10372605D01*
X3756305Y10329872D01*
X3763183Y10327368D01*
X4349815Y10094316D01*
X4356520Y10091424D01*
X4358439Y10090529D01*
X4928620Y9824703D01*
X4935162Y9821419D01*
X5490831Y9521915D01*
X5497170Y9518256D01*
X5640562Y9429856D01*
X6034497Y9186998D01*
X6040584Y9182997D01*
X6299186Y9002040D01*
X6557774Y8821093D01*
X6563647Y8816724D01*
X7058935Y8425409D01*
X7064541Y8420709D01*
X7526064Y8010369D01*
X7536284Y8001282D01*
X7541607Y7996265D01*
X7988201Y7550148D01*
X7993201Y7544855D01*
X8031996Y7501315D01*
X8413134Y7073560D01*
X8417843Y7067956D01*
X8809702Y6573070D01*
X8814071Y6567209D01*
X8915257Y6422935D01*
X9176518Y6050421D01*
X9180545Y6044309D01*
X9512371Y5507348D01*
X9516036Y5501012D01*
X9816130Y4945673D01*
X9819417Y4939146D01*
X10028057Y4492872D01*
X10086754Y4367321D01*
X10089657Y4360611D01*
X10206498Y4067416D01*
X10323337Y3774228D01*
X10325848Y3767353D01*
X10525082Y3168400D01*
X10527190Y3161390D01*
X10691309Y2551868D01*
X10693004Y2544756D01*
X10725094Y2390354D01*
X10813042Y1967193D01*
X10815649Y1944252D01*
X10815988Y1928420D01*
X10821321Y1911532D01*
X10853734Y1808898D01*
X10859852Y1789524D01*
X10864852Y1782063D01*
X10868739Y1773978D01*
X10865820Y1772574D01*
X10882357Y1720018D01*
X10881386Y1701801D01*
X10880131Y1691868D01*
X10861463Y1544096D01*
X10879163Y1363576D01*
X10936418Y1191463D01*
X10940065Y1185441D01*
X10940066Y1185439D01*
X10979147Y1120908D01*
X10997326Y1052278D01*
X10989772Y1012543D01*
X10978181Y980696D01*
X10970592Y959845D01*
X10947858Y779890D01*
X10965558Y599370D01*
X11022813Y427257D01*
X11026461Y421234D01*
X11026462Y421231D01*
X11030585Y414423D01*
X11048763Y345793D01*
X11041209Y306059D01*
X10999445Y191314D01*
X10976711Y11359D01*
X10994411Y-169161D01*
X10996635Y-175846D01*
X11041032Y-309308D01*
X11043555Y-380260D01*
X11035190Y-402798D01*
X11032630Y-406770D01*
X10970592Y-577217D01*
X10947858Y-757172D01*
X10965558Y-937692D01*
X10991108Y-1014498D01*
X10993631Y-1085447D01*
X10977463Y-1122520D01*
X10946235Y-1170976D01*
X10943826Y-1177596D01*
X10943824Y-1177599D01*
X10886606Y-1334804D01*
X10884197Y-1341423D01*
X10861463Y-1521378D01*
X10875745Y-1667042D01*
X10879163Y-1701898D01*
X10876040Y-1702204D01*
X10871667Y-1759199D01*
X10869349Y-1763779D01*
X10867326Y-1766650D01*
X10864599Y-1774630D01*
X10863234Y-1777440D01*
X10858648Y-1784515D01*
X10856076Y-1793114D01*
X10856075Y-1793117D01*
X10841301Y-1842520D01*
X10839815Y-1847160D01*
X10820227Y-1904484D01*
X10819849Y-1912913D01*
X10819329Y-1915991D01*
X10816914Y-1924066D01*
X10816859Y-1933034D01*
X10816846Y-1935235D01*
X10814238Y-1959975D01*
X10695589Y-2533865D01*
X10693907Y-2540955D01*
X10641017Y-2738163D01*
X10530249Y-3151177D01*
X10528147Y-3158195D01*
X10452257Y-3387063D01*
X10330407Y-3754540D01*
X10329301Y-3757875D01*
X10326793Y-3764759D01*
X10093430Y-4351864D01*
X10090528Y-4358590D01*
X9823445Y-4931126D01*
X9820156Y-4937673D01*
X9520241Y-5493732D01*
X9516577Y-5500076D01*
X9511380Y-5508500D01*
X9186282Y-6035446D01*
X9184857Y-6037755D01*
X9180847Y-6043851D01*
X8818406Y-6561388D01*
X8814060Y-6567224D01*
X8422153Y-7062821D01*
X8417463Y-7068409D01*
X7997436Y-7540365D01*
X7992408Y-7545693D01*
X7545693Y-7992408D01*
X7540365Y-7997436D01*
X7068409Y-8417463D01*
X7062821Y-8422153D01*
X6567224Y-8814060D01*
X6561388Y-8818406D01*
X6043851Y-9180847D01*
X6037764Y-9184851D01*
X5732177Y-9373383D01*
X5500076Y-9516577D01*
X5493732Y-9520241D01*
X4937673Y-9820156D01*
X4931126Y-9823445D01*
X4358590Y-10090528D01*
X4351864Y-10093430D01*
X3764759Y-10326793D01*
X3757887Y-10329296D01*
X3450073Y-10431364D01*
X3158195Y-10528147D01*
X3151177Y-10530249D01*
X2924811Y-10590959D01*
X2540955Y-10693907D01*
X2533865Y-10695589D01*
X1963740Y-10813460D01*
X1944269Y-10815392D01*
X1939257Y-10816079D01*
X1930279Y-10816024D01*
X1923699Y-10817905D01*
X1916845Y-10818044D01*
X1908279Y-10820739D01*
X1908274Y-10820740D01*
X1855303Y-10837407D01*
X1852122Y-10838362D01*
X1790229Y-10856051D01*
X1784442Y-10859702D01*
X1778115Y-10861693D01*
X1778020Y-10861723D01*
X1777927Y-10861752D01*
X1777918Y-10861723D01*
X1715776Y-10871158D01*
X1538417Y-10850009D01*
X1531414Y-10850745D01*
X1531413Y-10850745D01*
X1365025Y-10868233D01*
X1365023Y-10868234D01*
X1358025Y-10868969D01*
X1319685Y-10882021D01*
X1192986Y-10925152D01*
X1192983Y-10925153D01*
X1186316Y-10927423D01*
X1180318Y-10931113D01*
X1180316Y-10931114D01*
X1121323Y-10967407D01*
X1052822Y-10986065D01*
X1013035Y-10978788D01*
X978703Y-10966563D01*
X960955Y-10960243D01*
X960953Y-10960242D01*
X954321Y-10957881D01*
X947333Y-10957048D01*
X947330Y-10957047D01*
X824229Y-10942368D01*
X774211Y-10936404D01*
X767208Y-10937140D01*
X767207Y-10937140D01*
X600819Y-10954628D01*
X600817Y-10954629D01*
X593819Y-10955364D01*
X558443Y-10967407D01*
X428780Y-11011547D01*
X428777Y-11011548D01*
X422110Y-11013818D01*
X416110Y-11017509D01*
X416106Y-11017511D01*
X414780Y-11018327D01*
X413811Y-11018591D01*
X409735Y-11020509D01*
X409398Y-11019793D01*
X346280Y-11036989D01*
X306487Y-11029712D01*
X220347Y-10999039D01*
X192424Y-10989096D01*
X192422Y-10989096D01*
X185790Y-10986734D01*
X178802Y-10985901D01*
X178799Y-10985900D01*
X55698Y-10971221D01*
X5680Y-10965257D01*
X-1323Y-10965993D01*
X-1324Y-10965993D01*
X-167712Y-10983481D01*
X-167714Y-10983482D01*
X-174712Y-10984217D01*
X-254994Y-11011547D01*
X-307943Y-11029572D01*
X-378875Y-11032590D01*
X-403779Y-11023544D01*
X-405919Y-11022500D01*
X-411865Y-11018727D01*
X-472930Y-10996983D01*
X-576106Y-10960243D01*
X-576111Y-10960242D01*
X-582741Y-10957881D01*
X-589729Y-10957048D01*
X-589732Y-10957047D01*
X-712833Y-10942368D01*
X-762851Y-10936404D01*
X-769854Y-10937140D01*
X-769855Y-10937140D01*
X-936243Y-10954628D01*
X-936245Y-10954629D01*
X-943243Y-10955364D01*
X-949905Y-10957632D01*
X-949910Y-10957633D01*
X-1014013Y-10979455D01*
X-1084945Y-10982473D01*
X-1122131Y-10966563D01*
X-1170128Y-10936103D01*
X-1170131Y-10936101D01*
X-1176071Y-10932332D01*
X-1189857Y-10927423D01*
X-1340312Y-10873848D01*
X-1340317Y-10873847D01*
X-1346947Y-10871486D01*
X-1353935Y-10870653D01*
X-1353938Y-10870652D01*
X-1477039Y-10855973D01*
X-1527057Y-10850009D01*
X-1534060Y-10850745D01*
X-1534061Y-10850745D01*
X-1700442Y-10868232D01*
X-1700447Y-10868233D01*
X-1706327Y-10868851D01*
X-1706328Y-10868851D01*
X-1707449Y-10868969D01*
X-1707470Y-10868772D01*
X-1774818Y-10864108D01*
X-1778366Y-10862634D01*
X-1784515Y-10858648D01*
X-1793114Y-10856076D01*
X-1793117Y-10856075D01*
X-1842519Y-10841301D01*
X-1847126Y-10839826D01*
X-1904484Y-10820227D01*
X-1912917Y-10819849D01*
X-1915992Y-10819329D01*
X-1924066Y-10816914D01*
X-1933034Y-10816859D01*
X-1933306Y-10816857D01*
X-1935237Y-10816846D01*
X-1959973Y-10814239D01*
X-2274104Y-10749290D01*
X-2534043Y-10695546D01*
X-2541173Y-10693854D01*
X-3151556Y-10530136D01*
X-3158576Y-10528033D01*
X-3445215Y-10432973D01*
X-3758436Y-10329097D01*
X-3765307Y-10326595D01*
X-4352599Y-10093116D01*
X-4359324Y-10090212D01*
X-4931997Y-9823008D01*
X-4938546Y-9819718D01*
X-5494765Y-9519645D01*
X-5501110Y-9515979D01*
X-6038904Y-9184101D01*
X-6045026Y-9180073D01*
X-6369239Y-8952955D01*
X-6562637Y-8817476D01*
X-6568514Y-8813099D01*
X-7064154Y-8421033D01*
X-7069767Y-8416322D01*
X-7541795Y-7996088D01*
X-7547124Y-7991058D01*
X-7993913Y-7544099D01*
X-7998941Y-7538767D01*
X-8034119Y-7499223D01*
X-8418988Y-7066593D01*
X-8423691Y-7060986D01*
X-8813949Y-6567247D01*
X-8815589Y-6565171D01*
X-8819943Y-6559320D01*
X-9182349Y-6041567D01*
X-9186374Y-6035446D01*
X-9518062Y-5497507D01*
X-9521709Y-5491189D01*
X-9821579Y-4934843D01*
X-9824856Y-4928313D01*
X-9977893Y-4600000D01*
X1886496Y-4600000D01*
X1906458Y-4789928D01*
X1965473Y-4971556D01*
X2060960Y-5136944D01*
X2188747Y-5278866D01*
X2343248Y-5391118D01*
X2349276Y-5393802D01*
X2349278Y-5393803D01*
X2511681Y-5466109D01*
X2517712Y-5468794D01*
X2611113Y-5488647D01*
X2698056Y-5507128D01*
X2698061Y-5507128D01*
X2704513Y-5508500D01*
X2895487Y-5508500D01*
X2901939Y-5507128D01*
X2901944Y-5507128D01*
X2988887Y-5488647D01*
X3082288Y-5468794D01*
X3088319Y-5466109D01*
X3250722Y-5393803D01*
X3250724Y-5393802D01*
X3256752Y-5391118D01*
X3411253Y-5278866D01*
X3539040Y-5136944D01*
X3634527Y-4971556D01*
X3693542Y-4789928D01*
X3713504Y-4600000D01*
X3693542Y-4410072D01*
X3634527Y-4228444D01*
X3539040Y-4063056D01*
X3498137Y-4017628D01*
X3415675Y-3926045D01*
X3415674Y-3926044D01*
X3411253Y-3921134D01*
X3256752Y-3808882D01*
X3250724Y-3806198D01*
X3250722Y-3806197D01*
X3088319Y-3733891D01*
X3088318Y-3733891D01*
X3082288Y-3731206D01*
X2988887Y-3711353D01*
X2901944Y-3692872D01*
X2901939Y-3692872D01*
X2895487Y-3691500D01*
X2704513Y-3691500D01*
X2698061Y-3692872D01*
X2698056Y-3692872D01*
X2611113Y-3711353D01*
X2517712Y-3731206D01*
X2511682Y-3733891D01*
X2511681Y-3733891D01*
X2349278Y-3806197D01*
X2349276Y-3806198D01*
X2343248Y-3808882D01*
X2188747Y-3921134D01*
X2184326Y-3926044D01*
X2184325Y-3926045D01*
X2101864Y-4017628D01*
X2060960Y-4063056D01*
X1965473Y-4228444D01*
X1906458Y-4410072D01*
X1886496Y-4600000D01*
X-9977893Y-4600000D01*
X-10091864Y-4355496D01*
X-10094766Y-4348767D01*
X-10144821Y-4222721D01*
X-10328012Y-3761416D01*
X-10330514Y-3754540D01*
X-10338242Y-3731206D01*
X-10428052Y-3460059D01*
X-10529221Y-3154614D01*
X-10531322Y-3147593D01*
X-10694814Y-2537132D01*
X-10696503Y-2530001D01*
X-10792027Y-2067113D01*
X-10814224Y-1959549D01*
X-10816201Y-1939585D01*
X-10816832Y-1934977D01*
X-10816777Y-1926006D01*
X-10818632Y-1919514D01*
X-10818767Y-1912763D01*
X-10821457Y-1904201D01*
X-10821458Y-1904197D01*
X-10838133Y-1851128D01*
X-10839077Y-1847981D01*
X-10854335Y-1794593D01*
X-10854336Y-1794590D01*
X-10856804Y-1785956D01*
X-10860405Y-1780249D01*
X-10862430Y-1773804D01*
X-10867420Y-1766334D01*
X-10867422Y-1766330D01*
X-10868552Y-1764638D01*
X-10869155Y-1762710D01*
X-10871298Y-1758236D01*
X-10870652Y-1757927D01*
X-10889757Y-1696882D01*
X-10888551Y-1677116D01*
X-10872004Y-1559379D01*
X-10872003Y-1559369D01*
X-10871453Y-1555454D01*
X-10871136Y-1532737D01*
X-10891355Y-1352482D01*
X-10895206Y-1341423D01*
X-10948688Y-1187843D01*
X-10948690Y-1187840D01*
X-10951007Y-1181185D01*
X-10987505Y-1122776D01*
X-11006639Y-1054409D01*
X-10998437Y-1011266D01*
X-10985593Y-977455D01*
X-10985591Y-977448D01*
X-10983092Y-970869D01*
X-10982112Y-963897D01*
X-10958399Y-795170D01*
X-10958399Y-795167D01*
X-10957848Y-791248D01*
X-10957531Y-768531D01*
X-10977750Y-588276D01*
X-10981601Y-577217D01*
X-11035083Y-423637D01*
X-11035085Y-423634D01*
X-11037402Y-416979D01*
X-11041137Y-411001D01*
X-11044179Y-404653D01*
X-11042091Y-403653D01*
X-11058269Y-345823D01*
X-11050067Y-302696D01*
X-11014446Y-208924D01*
X-11014444Y-208918D01*
X-11011945Y-202338D01*
X-11008222Y-175846D01*
X-10989450Y-42277D01*
X-8862991Y-42277D01*
X-8837375Y-310769D01*
X-8836290Y-315203D01*
X-8836289Y-315209D01*
X-8774355Y-568312D01*
X-8773269Y-572750D01*
X-8672015Y-822733D01*
X-8535735Y-1055482D01*
X-8438075Y-1177599D01*
X-8415314Y-1206060D01*
X-8367284Y-1266119D01*
X-8170191Y-1450234D01*
X-7948584Y-1603968D01*
X-7944501Y-1605999D01*
X-7944498Y-1606001D01*
X-7917016Y-1619673D01*
X-7707106Y-1724101D01*
X-7702772Y-1725522D01*
X-7702769Y-1725523D01*
X-7455147Y-1806698D01*
X-7455141Y-1806699D01*
X-7450814Y-1808118D01*
X-7446323Y-1808898D01*
X-7446322Y-1808898D01*
X-7188860Y-1853601D01*
X-7188852Y-1853602D01*
X-7185079Y-1854257D01*
X-7181242Y-1854448D01*
X-7101422Y-1858422D01*
X-7101414Y-1858422D01*
X-7099851Y-1858500D01*
X-6931488Y-1858500D01*
X-6929220Y-1858335D01*
X-6929208Y-1858335D01*
X-6798116Y-1848823D01*
X-6730996Y-1843953D01*
X-6726541Y-1842969D01*
X-6726538Y-1842969D01*
X-6472088Y-1786791D01*
X-6472084Y-1786790D01*
X-6467628Y-1785806D01*
X-6324002Y-1731391D01*
X-6219682Y-1691868D01*
X-6219679Y-1691867D01*
X-6215412Y-1690250D01*
X-5979632Y-1559286D01*
X-5832646Y-1447110D01*
X-5768859Y-1398429D01*
X-5768858Y-1398428D01*
X-5765227Y-1395657D01*
X-5716521Y-1345834D01*
X-5605238Y-1231997D01*
X-5576688Y-1202792D01*
X-5417966Y-984730D01*
X-5334810Y-826676D01*
X-5294510Y-750079D01*
X-5294507Y-750073D01*
X-5292385Y-746039D01*
X-5239144Y-595276D01*
X-5204098Y-496033D01*
X-5204098Y-496032D01*
X-5202575Y-491720D01*
X-5150419Y-227100D01*
X-5147867Y-175844D01*
X-5141218Y-42277D01*
X5137009Y-42277D01*
X5162625Y-310769D01*
X5163710Y-315203D01*
X5163711Y-315209D01*
X5225645Y-568312D01*
X5226731Y-572750D01*
X5327985Y-822733D01*
X5464265Y-1055482D01*
X5561925Y-1177599D01*
X5584686Y-1206060D01*
X5632716Y-1266119D01*
X5829809Y-1450234D01*
X6051416Y-1603968D01*
X6055499Y-1605999D01*
X6055502Y-1606001D01*
X6082984Y-1619673D01*
X6292894Y-1724101D01*
X6297228Y-1725522D01*
X6297231Y-1725523D01*
X6544853Y-1806698D01*
X6544859Y-1806699D01*
X6549186Y-1808118D01*
X6553677Y-1808898D01*
X6553678Y-1808898D01*
X6811140Y-1853601D01*
X6811148Y-1853602D01*
X6814921Y-1854257D01*
X6818758Y-1854448D01*
X6898578Y-1858422D01*
X6898586Y-1858422D01*
X6900149Y-1858500D01*
X7068512Y-1858500D01*
X7070780Y-1858335D01*
X7070792Y-1858335D01*
X7201884Y-1848823D01*
X7269004Y-1843953D01*
X7273459Y-1842969D01*
X7273462Y-1842969D01*
X7527912Y-1786791D01*
X7527916Y-1786790D01*
X7532372Y-1785806D01*
X7675998Y-1731391D01*
X7780318Y-1691868D01*
X7780321Y-1691867D01*
X7784588Y-1690250D01*
X8020368Y-1559286D01*
X8167354Y-1447110D01*
X8231141Y-1398429D01*
X8231142Y-1398428D01*
X8234773Y-1395657D01*
X8283479Y-1345834D01*
X8394762Y-1231997D01*
X8423312Y-1202792D01*
X8582034Y-984730D01*
X8665190Y-826676D01*
X8705490Y-750079D01*
X8705493Y-750073D01*
X8707615Y-746039D01*
X8760856Y-595276D01*
X8795902Y-496033D01*
X8795902Y-496032D01*
X8797425Y-491720D01*
X8849581Y-227100D01*
X8852133Y-175844D01*
X8862764Y37708D01*
X8862764Y37714D01*
X8862991Y42277D01*
X8837375Y310769D01*
X8824898Y361761D01*
X8774355Y568312D01*
X8773269Y572750D01*
X8672015Y822733D01*
X8535735Y1055482D01*
X8417928Y1202792D01*
X8370136Y1262553D01*
X8370135Y1262555D01*
X8367284Y1266119D01*
X8170191Y1450234D01*
X7948584Y1603968D01*
X7944501Y1605999D01*
X7944498Y1606001D01*
X7806549Y1674629D01*
X7707106Y1724101D01*
X7702772Y1725522D01*
X7702769Y1725523D01*
X7455147Y1806698D01*
X7455141Y1806699D01*
X7450814Y1808118D01*
X7411679Y1814913D01*
X7188860Y1853601D01*
X7188852Y1853602D01*
X7185079Y1854257D01*
X7173817Y1854818D01*
X7101422Y1858422D01*
X7101414Y1858422D01*
X7099851Y1858500D01*
X6931488Y1858500D01*
X6929220Y1858335D01*
X6929208Y1858335D01*
X6798116Y1848823D01*
X6730996Y1843953D01*
X6726541Y1842969D01*
X6726538Y1842969D01*
X6472088Y1786791D01*
X6472084Y1786790D01*
X6467628Y1785806D01*
X6392153Y1757211D01*
X6219682Y1691868D01*
X6219679Y1691867D01*
X6215412Y1690250D01*
X5979632Y1559286D01*
X5765227Y1395657D01*
X5762034Y1392391D01*
X5762032Y1392389D01*
X5708248Y1337371D01*
X5576688Y1202792D01*
X5417966Y984730D01*
X5395374Y941789D01*
X5294510Y750079D01*
X5294507Y750073D01*
X5292385Y746039D01*
X5290865Y741734D01*
X5290863Y741730D01*
X5228874Y566193D01*
X5202575Y491720D01*
X5188973Y422707D01*
X5165982Y306059D01*
X5150419Y227100D01*
X5150192Y222547D01*
X5150192Y222544D01*
X5137983Y-22718D01*
X5137009Y-42277D01*
X-5141218Y-42277D01*
X-5137236Y37708D01*
X-5137236Y37714D01*
X-5137009Y42277D01*
X-5162625Y310769D01*
X-5175102Y361761D01*
X-5225645Y568312D01*
X-5226731Y572750D01*
X-5327985Y822733D01*
X-5464265Y1055482D01*
X-5582072Y1202792D01*
X-5629864Y1262553D01*
X-5629865Y1262555D01*
X-5632716Y1266119D01*
X-5829809Y1450234D01*
X-6051416Y1603968D01*
X-6055499Y1605999D01*
X-6055502Y1606001D01*
X-6193451Y1674629D01*
X-6292894Y1724101D01*
X-6297228Y1725522D01*
X-6297231Y1725523D01*
X-6544853Y1806698D01*
X-6544859Y1806699D01*
X-6549186Y1808118D01*
X-6588321Y1814913D01*
X-6811140Y1853601D01*
X-6811148Y1853602D01*
X-6814921Y1854257D01*
X-6826183Y1854818D01*
X-6898578Y1858422D01*
X-6898586Y1858422D01*
X-6900149Y1858500D01*
X-7068512Y1858500D01*
X-7070780Y1858335D01*
X-7070792Y1858335D01*
X-7201884Y1848823D01*
X-7269004Y1843953D01*
X-7273459Y1842969D01*
X-7273462Y1842969D01*
X-7527912Y1786791D01*
X-7527916Y1786790D01*
X-7532372Y1785806D01*
X-7607847Y1757211D01*
X-7780318Y1691868D01*
X-7780321Y1691867D01*
X-7784588Y1690250D01*
X-8020368Y1559286D01*
X-8234773Y1395657D01*
X-8237966Y1392391D01*
X-8237968Y1392389D01*
X-8291752Y1337371D01*
X-8423312Y1202792D01*
X-8582034Y984730D01*
X-8604626Y941789D01*
X-8705490Y750079D01*
X-8705493Y750073D01*
X-8707615Y746039D01*
X-8709135Y741734D01*
X-8709137Y741730D01*
X-8771126Y566193D01*
X-8797425Y491720D01*
X-8811027Y422707D01*
X-8834018Y306059D01*
X-8849581Y227100D01*
X-8849808Y222547D01*
X-8849808Y222544D01*
X-8862017Y-22718D01*
X-8862991Y-42277D01*
X-10989450Y-42277D01*
X-10987252Y-26639D01*
X-10987252Y-26636D01*
X-10986701Y-22717D01*
X-10986384Y0D01*
X-11006603Y180255D01*
X-11010454Y191315D01*
X-11050635Y306697D01*
X-11054149Y377606D01*
X-11047139Y396490D01*
X-11047504Y396629D01*
X-10985592Y559611D01*
X-10985591Y559613D01*
X-10983092Y566193D01*
X-10957848Y745814D01*
X-10957531Y768531D01*
X-10977750Y948786D01*
X-10980066Y955439D01*
X-10999907Y1012413D01*
X-11003419Y1083323D01*
X-10985863Y1123577D01*
X-10981401Y1130293D01*
X-10961109Y1160835D01*
X-10896697Y1330399D01*
X-10887543Y1395535D01*
X-10872004Y1506098D01*
X-10872004Y1506101D01*
X-10871453Y1510020D01*
X-10871136Y1532737D01*
X-10887997Y1683055D01*
X-10875034Y1754332D01*
X-10872495Y1759311D01*
X-10867325Y1766650D01*
X-10864597Y1774633D01*
X-10863234Y1777441D01*
X-10858648Y1784515D01*
X-10844316Y1832438D01*
X-10841301Y1842519D01*
X-10839826Y1847126D01*
X-10820227Y1904484D01*
X-10819849Y1912917D01*
X-10819329Y1915992D01*
X-10816914Y1924066D01*
X-10816846Y1935237D01*
X-10814238Y1959977D01*
X-10695590Y2533858D01*
X-10693899Y2540986D01*
X-10530249Y3151177D01*
X-10528147Y3158195D01*
X-10329301Y3757875D01*
X-10326794Y3764759D01*
X-10224817Y4021317D01*
X-10093432Y4351864D01*
X-10090529Y4358590D01*
X-9823445Y4931126D01*
X-9820156Y4937673D01*
X-9570796Y5400000D01*
X-2513504Y5400000D01*
X-2493542Y5210072D01*
X-2434527Y5028444D01*
X-2339040Y4863056D01*
X-2211253Y4721134D01*
X-2056752Y4608882D01*
X-2050724Y4606198D01*
X-2050722Y4606197D01*
X-1888319Y4533891D01*
X-1882288Y4531206D01*
X-1788888Y4511353D01*
X-1701944Y4492872D01*
X-1701939Y4492872D01*
X-1695487Y4491500D01*
X-1504513Y4491500D01*
X-1498061Y4492872D01*
X-1498056Y4492872D01*
X-1411112Y4511353D01*
X-1317712Y4531206D01*
X-1311681Y4533891D01*
X-1149278Y4606197D01*
X-1149276Y4606198D01*
X-1143248Y4608882D01*
X-988747Y4721134D01*
X-860960Y4863056D01*
X-765473Y5028444D01*
X-706458Y5210072D01*
X-686496Y5400000D01*
X-687186Y5406565D01*
X-705768Y5583365D01*
X-705768Y5583367D01*
X-706458Y5589928D01*
X-765473Y5771556D01*
X-860960Y5936944D01*
X-951730Y6037755D01*
X-984325Y6073955D01*
X-984326Y6073956D01*
X-988747Y6078866D01*
X-1143248Y6191118D01*
X-1149276Y6193802D01*
X-1149278Y6193803D01*
X-1311681Y6266109D01*
X-1311682Y6266109D01*
X-1317712Y6268794D01*
X-1411112Y6288647D01*
X-1498056Y6307128D01*
X-1498061Y6307128D01*
X-1504513Y6308500D01*
X-1695487Y6308500D01*
X-1701939Y6307128D01*
X-1701944Y6307128D01*
X-1788888Y6288647D01*
X-1882288Y6268794D01*
X-1888318Y6266109D01*
X-1888319Y6266109D01*
X-2050722Y6193803D01*
X-2050724Y6193802D01*
X-2056752Y6191118D01*
X-2211253Y6078866D01*
X-2215674Y6073956D01*
X-2215675Y6073955D01*
X-2248269Y6037755D01*
X-2339040Y5936944D01*
X-2434527Y5771556D01*
X-2493542Y5589928D01*
X-2494232Y5583367D01*
X-2494232Y5583365D01*
X-2512814Y5406565D01*
X-2513504Y5400000D01*
X-9570796Y5400000D01*
X-9520241Y5493732D01*
X-9516577Y5500076D01*
X-9184857Y6037755D01*
X-9180831Y6043875D01*
X-9176246Y6050421D01*
X-8818417Y6561372D01*
X-8814042Y6567248D01*
X-8422170Y7062800D01*
X-8417463Y7068409D01*
X-8415315Y7070822D01*
X-7997435Y7540367D01*
X-7992407Y7545695D01*
X-7545695Y7992407D01*
X-7540367Y7997435D01*
X-7068409Y8417463D01*
X-7062797Y8422172D01*
X-7058703Y8425409D01*
X-6567246Y8814043D01*
X-6561371Y8818418D01*
X-6363700Y8956851D01*
X-6043867Y9180837D01*
X-6037764Y9184851D01*
X-5500076Y9516577D01*
X-5493732Y9520241D01*
X-4937673Y9820156D01*
X-4931126Y9823445D01*
X-4358590Y10090529D01*
X-4351864Y10093432D01*
X-4053883Y10211873D01*
X-3764747Y10326799D01*
X-3757887Y10329296D01*
X-3450073Y10431364D01*
X-3158195Y10528147D01*
X-3151177Y10530249D01*
X-2540986Y10693899D01*
X-2533857Y10695591D01*
X-2194570Y10765737D01*
X-1963735Y10813461D01*
X-1944273Y10815392D01*
X-1939259Y10816079D01*
X-1930279Y10816024D01*
X-1923699Y10817905D01*
X-1916845Y10818044D01*
X-1908279Y10820739D01*
X-1908274Y10820740D01*
X-1855303Y10837407D01*
X-1852122Y10838362D01*
X-1790229Y10856051D01*
X-1785591Y10858977D01*
X-1780007Y10861097D01*
X-1777927Y10861752D01*
X-1777222Y10859512D01*
X-1718490Y10868826D01*
X-1650112Y10859702D01*
X-1556757Y10847245D01*
X-1556753Y10847245D01*
X-1549776Y10846314D01*
X-1542765Y10846952D01*
X-1542761Y10846952D01*
X-1380147Y10861752D01*
X-1369137Y10862754D01*
X-1362435Y10864932D01*
X-1362433Y10864932D01*
X-1203328Y10916628D01*
X-1203325Y10916629D01*
X-1196629Y10918805D01*
X-1176049Y10931073D01*
X-1120489Y10964193D01*
X-1051734Y10981893D01*
X-1012053Y10974062D01*
X-971968Y10959155D01*
X-971965Y10959154D01*
X-965363Y10956699D01*
X-958382Y10955768D01*
X-958380Y10955767D01*
X-792551Y10933640D01*
X-792547Y10933640D01*
X-785570Y10932709D01*
X-778559Y10933347D01*
X-778555Y10933347D01*
X-636072Y10946315D01*
X-604931Y10949149D01*
X-598229Y10951327D01*
X-598227Y10951327D01*
X-439122Y11003023D01*
X-439119Y11003024D01*
X-432423Y11005200D01*
X-426373Y11008807D01*
X-426370Y11008808D01*
X-414063Y11016144D01*
X-345308Y11033844D01*
X-305629Y11026014D01*
G37*
%TD.AperFunction*%
%TD*%
M02*
