%TF.GenerationSoftware,KiCad,Pcbnew,(6.0.7)*%
%TF.CreationDate,2022-09-30T17:27:37+13:00*%
%TF.ProjectId,encoder,656e636f-6465-4722-9e6b-696361645f70,rev?*%
%TF.SameCoordinates,Original*%
%TF.FileFunction,Soldermask,Top*%
%TF.FilePolarity,Negative*%
%FSLAX46Y46*%
G04 Gerber Fmt 4.6, Leading zero omitted, Abs format (unit mm)*
G04 Created by KiCad (PCBNEW (6.0.7)) date 2022-09-30 17:27:37*
%MOMM*%
%LPD*%
G01*
G04 APERTURE LIST*
G04 Aperture macros list*
%AMRoundRect*
0 Rectangle with rounded corners*
0 $1 Rounding radius*
0 $2 $3 $4 $5 $6 $7 $8 $9 X,Y pos of 4 corners*
0 Add a 4 corners polygon primitive as box body*
4,1,4,$2,$3,$4,$5,$6,$7,$8,$9,$2,$3,0*
0 Add four circle primitives for the rounded corners*
1,1,$1+$1,$2,$3*
1,1,$1+$1,$4,$5*
1,1,$1+$1,$6,$7*
1,1,$1+$1,$8,$9*
0 Add four rect primitives between the rounded corners*
20,1,$1+$1,$2,$3,$4,$5,0*
20,1,$1+$1,$4,$5,$6,$7,0*
20,1,$1+$1,$6,$7,$8,$9,0*
20,1,$1+$1,$8,$9,$2,$3,0*%
G04 Aperture macros list end*
%ADD10R,0.558800X1.092200*%
%ADD11R,1.803400X1.295400*%
%ADD12RoundRect,0.225000X0.225000X0.250000X-0.225000X0.250000X-0.225000X-0.250000X0.225000X-0.250000X0*%
%ADD13C,0.600000*%
%ADD14R,0.650000X1.500000*%
%ADD15C,2.700000*%
%ADD16RoundRect,0.237500X-0.237500X0.250000X-0.237500X-0.250000X0.237500X-0.250000X0.237500X0.250000X0*%
%ADD17RoundRect,0.225000X-0.225000X-0.250000X0.225000X-0.250000X0.225000X0.250000X-0.225000X0.250000X0*%
%ADD18RoundRect,0.237500X0.237500X-0.250000X0.237500X0.250000X-0.237500X0.250000X-0.237500X-0.250000X0*%
G04 APERTURE END LIST*
D10*
%TO.C,J1*%
X1200000Y6649200D03*
X399999Y6649200D03*
X-399999Y6649200D03*
X-1200000Y6649200D03*
D11*
X-2500000Y8049200D03*
X2500000Y8049200D03*
%TD*%
D12*
%TO.C,C2*%
X1375000Y-6400000D03*
X-175000Y-6400000D03*
%TD*%
D13*
%TO.C,REF\u002A\u002A*%
X-1532737Y11659752D03*
X-768531Y11746147D03*
X768531Y11746147D03*
X0Y11775000D03*
X1532737Y11659752D03*
%TD*%
D14*
%TO.C,U1*%
X-1905000Y-2700000D03*
X-635000Y-2700000D03*
X635000Y-2700000D03*
X1905000Y-2700000D03*
X1905000Y2700000D03*
X635000Y2700000D03*
X-635000Y2700000D03*
X-1905000Y2700000D03*
%TD*%
D15*
%TO.C,H1*%
X-7000000Y0D03*
%TD*%
%TO.C,H2*%
X7000000Y0D03*
%TD*%
D16*
%TO.C,R1*%
X-3500000Y-987500D03*
X-3500000Y-2812500D03*
%TD*%
D13*
%TO.C,REF\u002A\u002A*%
X-11684752Y-1532737D03*
X-11771147Y-768531D03*
X-11771147Y768531D03*
X-11800000Y0D03*
X-11684752Y1532737D03*
%TD*%
D17*
%TO.C,C1*%
X-175000Y-4500000D03*
X1375000Y-4500000D03*
%TD*%
D13*
%TO.C,REF\u002A\u002A*%
X1532737Y-11663605D03*
X768531Y-11750000D03*
X-768531Y-11750000D03*
X0Y-11778853D03*
X-1532737Y-11663605D03*
%TD*%
D18*
%TO.C,R2*%
X-3500000Y587500D03*
X-3500000Y2412500D03*
%TD*%
D13*
%TO.C,REF\u002A\u002A*%
X11675000Y1532736D03*
X11761395Y768530D03*
X11761395Y-768532D03*
X11790248Y-1D03*
X11675000Y-1532738D03*
%TD*%
M02*
