%TF.GenerationSoftware,KiCad,Pcbnew,(6.0.7)*%
%TF.CreationDate,2023-02-22T15:10:50+13:00*%
%TF.ProjectId,encoder,656e636f-6465-4722-9e6b-696361645f70,rev?*%
%TF.SameCoordinates,Original*%
%TF.FileFunction,Profile,NP*%
%FSLAX46Y46*%
G04 Gerber Fmt 4.6, Leading zero omitted, Abs format (unit mm)*
G04 Created by KiCad (PCBNEW (6.0.7)) date 2023-02-22 15:10:50*
%MOMM*%
%LPD*%
G01*
G04 APERTURE LIST*
%TA.AperFunction,Profile*%
%ADD10C,0.100000*%
%TD*%
%TA.AperFunction,Profile*%
%ADD11C,0.150000*%
%TD*%
G04 APERTURE END LIST*
D10*
X13550000Y-2000000D02*
X11325000Y-2000000D01*
X13550000Y-2000000D02*
X13550000Y-13525000D01*
X-2000000Y-13550000D02*
X-13525000Y-13550000D01*
X-2000000Y11324999D02*
G75*
G03*
X-11324999Y2000000I2000000J-11324999D01*
G01*
X13550000Y-13525000D02*
X2000000Y-13525000D01*
D11*
X-25000000Y25000000D02*
X25000000Y25000000D01*
X25000000Y25000000D02*
X25000000Y-25000000D01*
X25000000Y-25000000D02*
X-25000000Y-25000000D01*
X-25000000Y-25000000D02*
X-25000000Y25000000D01*
D10*
X2000000Y13562500D02*
X2000000Y11324999D01*
X-2000000Y-13550000D02*
X-2000000Y-11325000D01*
X2000000Y-13525000D02*
X2000000Y-11325000D01*
X-13525000Y-13550000D02*
X-13525000Y-1995727D01*
X-2000000Y13525000D02*
X-2000000Y11325000D01*
X2000000Y13562500D02*
X13525000Y13562500D01*
X-13550000Y2000000D02*
X-13550000Y13525000D01*
X-13550000Y2000000D02*
X-11325000Y2000000D01*
X13525000Y2012500D02*
X11325000Y2012500D01*
X-11325753Y-1995727D02*
G75*
G03*
X-2000000Y-11324999I11325753J1995727D01*
G01*
X11322853Y2012118D02*
G75*
G03*
X2000000Y11324999I-11322854J-2012120D01*
G01*
X-13550000Y13525000D02*
X-2000000Y13525000D01*
X13525000Y13562500D02*
X13525000Y2012500D01*
X2000000Y-11324999D02*
G75*
G03*
X11324999Y-2000000I-2000001J11325000D01*
G01*
X-13525000Y-1995727D02*
X-11325753Y-1995727D01*
M02*
