%TF.GenerationSoftware,KiCad,Pcbnew,(6.0.7)*%
%TF.CreationDate,2022-09-29T17:13:44+13:00*%
%TF.ProjectId,encoder,656e636f-6465-4722-9e6b-696361645f70,rev?*%
%TF.SameCoordinates,Original*%
%TF.FileFunction,Legend,Bot*%
%TF.FilePolarity,Positive*%
%FSLAX46Y46*%
G04 Gerber Fmt 4.6, Leading zero omitted, Abs format (unit mm)*
G04 Created by KiCad (PCBNEW (6.0.7)) date 2022-09-29 17:13:44*
%MOMM*%
%LPD*%
G01*
G04 APERTURE LIST*
%ADD10C,0.150000*%
G04 APERTURE END LIST*
D10*
X-2820000Y2523809D02*
X-2772380Y2428571D01*
X-2772380Y2285714D01*
X-2820000Y2142857D01*
X-2915238Y2047619D01*
X-3010476Y2000000D01*
X-3200952Y1952380D01*
X-3343809Y1952380D01*
X-3534285Y2000000D01*
X-3629523Y2047619D01*
X-3724761Y2142857D01*
X-3772380Y2285714D01*
X-3772380Y2380952D01*
X-3724761Y2523809D01*
X-3677142Y2571428D01*
X-3343809Y2571428D01*
X-3343809Y2380952D01*
X-3772380Y3142857D02*
X-3724761Y3047619D01*
X-3677142Y3000000D01*
X-3581904Y2952380D01*
X-3296190Y2952380D01*
X-3200952Y3000000D01*
X-3153333Y3047619D01*
X-3105714Y3142857D01*
X-3105714Y3285714D01*
X-3153333Y3380952D01*
X-3200952Y3428571D01*
X-3296190Y3476190D01*
X-3581904Y3476190D01*
X-3677142Y3428571D01*
X-3724761Y3380952D01*
X-3772380Y3285714D01*
X-3772380Y3142857D01*
X-3772380Y3904761D02*
X-3105714Y3904761D01*
X-3296190Y3904761D02*
X-3200952Y3952380D01*
X-3153333Y4000000D01*
X-3105714Y4095238D01*
X-3105714Y4190476D01*
X-3772380Y4952380D02*
X-2772380Y4952380D01*
X-3724761Y4952380D02*
X-3772380Y4857142D01*
X-3772380Y4666666D01*
X-3724761Y4571428D01*
X-3677142Y4523809D01*
X-3581904Y4476190D01*
X-3296190Y4476190D01*
X-3200952Y4523809D01*
X-3153333Y4571428D01*
X-3105714Y4666666D01*
X-3105714Y4857142D01*
X-3153333Y4952380D01*
X-3772380Y5571428D02*
X-3724761Y5476190D01*
X-3677142Y5428571D01*
X-3581904Y5380952D01*
X-3296190Y5380952D01*
X-3200952Y5428571D01*
X-3153333Y5476190D01*
X-3105714Y5571428D01*
X-3105714Y5714285D01*
X-3153333Y5809523D01*
X-3200952Y5857142D01*
X-3296190Y5904761D01*
X-3581904Y5904761D01*
X-3677142Y5857142D01*
X-3724761Y5809523D01*
X-3772380Y5714285D01*
X-3772380Y5571428D01*
X-3105714Y6333333D02*
X-3772380Y6333333D01*
X-3200952Y6333333D02*
X-3153333Y6380952D01*
X-3105714Y6476190D01*
X-3105714Y6619047D01*
X-3153333Y6714285D01*
X-3248571Y6761904D01*
X-3772380Y6761904D01*
X-3772380Y8476190D02*
X-3772380Y8000000D01*
X-2772380Y8000000D01*
X-3772380Y9238095D02*
X-3248571Y9238095D01*
X-3153333Y9190476D01*
X-3105714Y9095238D01*
X-3105714Y8904761D01*
X-3153333Y8809523D01*
X-3724761Y9238095D02*
X-3772380Y9142857D01*
X-3772380Y8904761D01*
X-3724761Y8809523D01*
X-3629523Y8761904D01*
X-3534285Y8761904D01*
X-3439047Y8809523D01*
X-3391428Y8904761D01*
X-3391428Y9142857D01*
X-3343809Y9238095D01*
X-3105714Y9619047D02*
X-3772380Y9857142D01*
X-3105714Y10095238D02*
X-3772380Y9857142D01*
X-4010476Y9761904D01*
X-4058095Y9714285D01*
X-4105714Y9619047D01*
X-5382380Y3595238D02*
X-5382380Y3119047D01*
X-4382380Y3119047D01*
X-4715714Y4357142D02*
X-5382380Y4357142D01*
X-4715714Y3928571D02*
X-5239523Y3928571D01*
X-5334761Y3976190D01*
X-5382380Y4071428D01*
X-5382380Y4214285D01*
X-5334761Y4309523D01*
X-5287142Y4357142D01*
X-5382380Y4833333D02*
X-4715714Y4833333D01*
X-4382380Y4833333D02*
X-4430000Y4785714D01*
X-4477619Y4833333D01*
X-4430000Y4880952D01*
X-4382380Y4833333D01*
X-4477619Y4833333D01*
X-5382380Y6071428D02*
X-4382380Y6071428D01*
X-4858571Y6071428D02*
X-4858571Y6642857D01*
X-5382380Y6642857D02*
X-4382380Y6642857D01*
X-5001428Y7119047D02*
X-5001428Y7880952D01*
X-5382380Y8357142D02*
X-4382380Y8357142D01*
X-4382380Y8738095D01*
X-4429999Y8833333D01*
X-4477619Y8880952D01*
X-4572857Y8928571D01*
X-4715714Y8928571D01*
X-4810952Y8880952D01*
X-4858571Y8833333D01*
X-4906190Y8738095D01*
X-4906190Y8357142D01*
X3652380Y7526190D02*
X3652380Y6954761D01*
X4652380Y7240476D02*
X3652380Y7240476D01*
X4176190Y6430952D02*
X4652380Y6430952D01*
X3652380Y6764285D02*
X4176190Y6430952D01*
X3652380Y6097619D01*
X4652380Y5764285D02*
X3652380Y5764285D01*
X3652380Y5383333D01*
X3700000Y5288095D01*
X3747619Y5240476D01*
X3842857Y5192857D01*
X3985714Y5192857D01*
X4080952Y5240476D01*
X4128571Y5288095D01*
X4176190Y5383333D01*
X4176190Y5764285D01*
X4652380Y4002380D02*
X3652380Y4002380D01*
X4128571Y4002380D02*
X4128571Y3430952D01*
X4652380Y3430952D02*
X3652380Y3430952D01*
X4652380Y2954761D02*
X3652380Y2954761D01*
X3652380Y2716666D01*
X3700000Y2573809D01*
X3795238Y2478571D01*
X3890476Y2430952D01*
X4080952Y2383333D01*
X4223809Y2383333D01*
X4414285Y2430952D01*
X4509523Y2478571D01*
X4604761Y2573809D01*
X4652380Y2716666D01*
X4652380Y2954761D01*
X3747619Y2002380D02*
X3700000Y1954761D01*
X3652380Y1859523D01*
X3652380Y1621428D01*
X3700000Y1526190D01*
X3747619Y1478571D01*
X3842857Y1430952D01*
X3938095Y1430952D01*
X4080952Y1478571D01*
X4652380Y2050000D01*
X4652380Y1430952D01*
X4557142Y1002380D02*
X4604761Y954761D01*
X4652380Y1002380D01*
X4604761Y1050000D01*
X4557142Y1002380D01*
X4652380Y1002380D01*
X4652380Y2380D02*
X4652380Y573809D01*
X4652380Y288095D02*
X3652380Y288095D01*
X3795238Y383333D01*
X3890476Y478571D01*
X3938095Y573809D01*
X4652380Y-1188095D02*
X3652380Y-1188095D01*
X3652380Y-1569047D01*
X3700000Y-1664285D01*
X3747619Y-1711904D01*
X3842857Y-1759523D01*
X3985714Y-1759523D01*
X4080952Y-1711904D01*
X4128571Y-1664285D01*
X4176190Y-1569047D01*
X4176190Y-1188095D01*
X4557142Y-2759523D02*
X4604761Y-2711904D01*
X4652380Y-2569047D01*
X4652380Y-2473809D01*
X4604761Y-2330952D01*
X4509523Y-2235714D01*
X4414285Y-2188095D01*
X4223809Y-2140476D01*
X4080952Y-2140476D01*
X3890476Y-2188095D01*
X3795238Y-2235714D01*
X3700000Y-2330952D01*
X3652380Y-2473809D01*
X3652380Y-2569047D01*
X3700000Y-2711904D01*
X3747619Y-2759523D01*
X4652380Y-3188095D02*
X3652380Y-3188095D01*
X3652380Y-3426190D01*
X3700000Y-3569047D01*
X3795238Y-3664285D01*
X3890476Y-3711904D01*
X4080952Y-3759523D01*
X4223809Y-3759523D01*
X4414285Y-3711904D01*
X4509523Y-3664285D01*
X4604761Y-3569047D01*
X4652380Y-3426190D01*
X4652380Y-3188095D01*
X4652380Y-4711904D02*
X4652380Y-4140476D01*
X4652380Y-4426190D02*
X3652380Y-4426190D01*
X3795238Y-4330952D01*
X3890476Y-4235714D01*
X3938095Y-4140476D01*
X3985714Y-5569047D02*
X4652380Y-5569047D01*
X3604761Y-5330952D02*
X4319047Y-5092857D01*
X4319047Y-5711904D01*
X4652380Y-6092857D02*
X3985714Y-6092857D01*
X4080952Y-6092857D02*
X4033333Y-6140476D01*
X3985714Y-6235714D01*
X3985714Y-6378571D01*
X4033333Y-6473809D01*
X4128571Y-6521428D01*
X4652380Y-6521428D01*
X4128571Y-6521428D02*
X4033333Y-6569047D01*
X3985714Y-6664285D01*
X3985714Y-6807142D01*
X4033333Y-6902380D01*
X4128571Y-6949999D01*
X4652380Y-6949999D01*
X4652380Y-7426190D02*
X3985714Y-7426190D01*
X4080952Y-7426190D02*
X4033333Y-7473809D01*
X3985714Y-7569047D01*
X3985714Y-7711904D01*
X4033333Y-7807142D01*
X4128571Y-7854761D01*
X4652380Y-7854761D01*
X4128571Y-7854761D02*
X4033333Y-7902380D01*
X3985714Y-7997619D01*
X3985714Y-8140476D01*
X4033333Y-8235714D01*
X4128571Y-8283333D01*
X4652380Y-8283333D01*
X482857Y-10567857D02*
X411428Y-10353571D01*
X411428Y-9996428D01*
X482857Y-9853571D01*
X554285Y-9782142D01*
X697142Y-9710714D01*
X839999Y-9710714D01*
X982857Y-9782142D01*
X1054285Y-9853571D01*
X1125714Y-9996428D01*
X1197142Y-10282142D01*
X1268571Y-10425000D01*
X1339999Y-10496428D01*
X1482857Y-10567857D01*
X1625714Y-10567857D01*
X1768571Y-10496428D01*
X1839999Y-10425000D01*
X1911428Y-10282142D01*
X1911428Y-9925000D01*
X1839999Y-9710714D01*
X411428Y-9067857D02*
X1911428Y-9067857D01*
X411428Y-8210714D01*
X1911428Y-8210714D01*
X1197142Y-7496428D02*
X1197142Y-6996428D01*
X411428Y-6782142D02*
X411428Y-7496428D01*
X1911428Y-7496428D01*
X1911428Y-6782142D01*
X411428Y-6139285D02*
X1911428Y-6139285D01*
X411428Y-5282142D02*
X1268571Y-5924999D01*
X1911428Y-5282142D02*
X1054285Y-6139285D01*
X1911428Y-3710714D02*
X411428Y-3210714D01*
X1911428Y-2710714D01*
X411428Y-1425000D02*
X411428Y-2282142D01*
X411428Y-1853571D02*
X1911428Y-1853571D01*
X1697142Y-1996428D01*
X1554285Y-2139285D01*
X1482857Y-2282142D01*
X554285Y-782142D02*
X482857Y-710714D01*
X411428Y-782142D01*
X482857Y-853571D01*
X554285Y-782142D01*
X411428Y-782142D01*
X1911428Y217857D02*
X1911428Y360714D01*
X1840000Y503571D01*
X1768571Y575000D01*
X1625714Y646428D01*
X1340000Y717857D01*
X982857Y717857D01*
X697142Y646428D01*
X554285Y575000D01*
X482857Y503571D01*
X411428Y360714D01*
X411428Y217857D01*
X482857Y75000D01*
X554285Y3571D01*
X697142Y-67857D01*
X982857Y-139285D01*
X1340000Y-139285D01*
X1625714Y-67857D01*
X1768571Y3571D01*
X1840000Y75000D01*
X1911428Y217857D01*
X-503571Y-7853571D02*
X-503571Y-6996428D01*
X-2003571Y-7425000D02*
X-503571Y-7425000D01*
X-503571Y-6639285D02*
X-2003571Y-6282142D01*
X-932142Y-5996428D01*
X-2003571Y-5710714D01*
X-503571Y-5353571D01*
X-2003571Y-4782142D02*
X-503571Y-4782142D01*
X-1932142Y-4139285D02*
X-2003571Y-3925000D01*
X-2003571Y-3567857D01*
X-1932142Y-3425000D01*
X-1860714Y-3353571D01*
X-1717857Y-3282142D01*
X-1574999Y-3282142D01*
X-1432142Y-3353571D01*
X-1360714Y-3425000D01*
X-1289285Y-3567857D01*
X-1217857Y-3853571D01*
X-1146428Y-3996428D01*
X-1074999Y-4067857D01*
X-932142Y-4139285D01*
X-789285Y-4139285D01*
X-646428Y-4067857D01*
X-574999Y-3996428D01*
X-503571Y-3853571D01*
X-503571Y-3496428D01*
X-574999Y-3282142D01*
X-503571Y-2853571D02*
X-503571Y-1996428D01*
X-2003571Y-2425000D02*
X-503571Y-2425000D01*
X-4347142Y-9067857D02*
X-4418571Y-8853571D01*
X-4418571Y-8496428D01*
X-4347142Y-8353571D01*
X-4275714Y-8282142D01*
X-4132857Y-8210714D01*
X-3990000Y-8210714D01*
X-3847142Y-8282142D01*
X-3775714Y-8353571D01*
X-3704285Y-8496428D01*
X-3632857Y-8782142D01*
X-3561428Y-8925000D01*
X-3490000Y-8996428D01*
X-3347142Y-9067857D01*
X-3204285Y-9067857D01*
X-3061428Y-8996428D01*
X-2990000Y-8925000D01*
X-2918571Y-8782142D01*
X-2918571Y-8425000D01*
X-2990000Y-8210714D01*
X-3632857Y-7567857D02*
X-3632857Y-7067857D01*
X-4418571Y-6853571D02*
X-4418571Y-7567857D01*
X-2918571Y-7567857D01*
X-2918571Y-6853571D01*
X-4418571Y-6210714D02*
X-2918571Y-6210714D01*
X-4418571Y-5353571D01*
X-2918571Y-5353571D01*
X-4347142Y-4710714D02*
X-4418571Y-4496428D01*
X-4418571Y-4139285D01*
X-4347142Y-3996428D01*
X-4275714Y-3925000D01*
X-4132857Y-3853571D01*
X-3990000Y-3853571D01*
X-3847142Y-3925000D01*
X-3775714Y-3996428D01*
X-3704285Y-4139285D01*
X-3632857Y-4425000D01*
X-3561428Y-4567857D01*
X-3490000Y-4639285D01*
X-3347142Y-4710714D01*
X-3204285Y-4710714D01*
X-3061428Y-4639285D01*
X-2990000Y-4567857D01*
X-2918571Y-4425000D01*
X-2918571Y-4067857D01*
X-2990000Y-3853571D01*
X-2918571Y-2925000D02*
X-2918571Y-2639285D01*
X-2989999Y-2496428D01*
X-3132857Y-2353571D01*
X-3418571Y-2282142D01*
X-3918571Y-2282142D01*
X-4204285Y-2353571D01*
X-4347142Y-2496428D01*
X-4418571Y-2639285D01*
X-4418571Y-2925000D01*
X-4347142Y-3067857D01*
X-4204285Y-3210714D01*
X-3918571Y-3282142D01*
X-3418571Y-3282142D01*
X-3132857Y-3210714D01*
X-2989999Y-3067857D01*
X-2918571Y-2925000D01*
X-4418571Y-782142D02*
X-3704285Y-1282142D01*
X-4418571Y-1639285D02*
X-2918571Y-1639285D01*
X-2918571Y-1067857D01*
X-2989999Y-925000D01*
X-3061428Y-853571D01*
X-3204285Y-782142D01*
X-3418571Y-782142D01*
X-3561428Y-853571D01*
X-3632857Y-925000D01*
X-3704285Y-1067857D01*
X-3704285Y-1639285D01*
M02*
